<?xml version="1.0" encoding="UTF-8"?>
<svg width="13px" height="11px" viewBox="0 0 13 11" version="1.1" xmlns="http://www.w3.org/2000/svg" xmlns:xlink="http://www.w3.org/1999/xlink">
    <!-- Generator: Sketch 51.2 (57519) - http://www.bohemiancoding.com/sketch -->
    <title>external-link-symbol</title>
    <desc>Created with Sketch.</desc>
    <defs></defs>
    <g id="Page-1" stroke="none" stroke-width="1" fill="none" fill-rule="evenodd">
        <g id="Desktop-HD" transform="translate(-162.000000, -530.000000)" fill="#8D0011" fill-rule="nonzero">
            <g id="external-link-symbol" transform="translate(162.000000, 530.000000)">
                <path d="M9.77265943,6.45446404 L9.31807779,6.45446404 C9.2516841,6.45446404 9.19720594,6.47573323 9.15481746,6.51847061 C9.11208072,6.56095923 9.09081185,6.61541332 9.09081185,6.68173338 L9.09081185,8.9544516 C9.09081185,9.26697182 8.97961671,9.53444116 8.75710206,9.75700888 C8.53458741,9.97952685 8.26702256,10.0906988 7.95450701,10.0906988 L2.04539349,10.0906988 C1.73290281,10.0906988 1.46536284,9.97952685 1.24279844,9.75700888 C1.02028378,9.53446603 0.909038896,9.26699669 0.909038896,8.9544516 L0.909038896,3.04532451 C0.909038896,2.73282917 1.02025891,2.46538471 1.24279844,2.24284186 C1.46536284,2.02027414 1.73290281,1.90905246 2.04539349,1.90905246 L7.04529398,1.90905246 C7.11168768,1.90905246 7.16616583,1.88768377 7.20872845,1.84512053 C7.25129106,1.80250753 7.27255993,1.74810319 7.27255993,1.68175825 L7.27255993,1.22714495 C7.27255993,1.1609244 7.25129106,1.10642056 7.20872845,1.06388219 C7.16616583,1.02126919 7.11168768,1 7.04529398,1 L2.04539349,1 C1.4820048,1 1.00020896,1.20005473 0.600055722,1.60013931 C0.200051742,2.00019901 0,2.48200204 0,3.04539914 L0,8.95455111 C0,9.51792333 0.200051742,9.99980099 0.600080598,10.3997363 C1.00023383,10.7998458 1.48202967,11 2.04541836,11 L7.95450701,11 C8.51787082,11 8.99971642,10.7998458 9.3998199,10.3997363 C9.79994826,9.99980099 10,9.51794821 10,8.95455111 L10,6.68190751 C10,6.61551282 9.97870626,6.56103386 9.93596951,6.51847061 C9.89335715,6.47573323 9.83887899,6.45446404 9.77265943,6.45446404 Z" id="Shape"></path>
                <path d="M12.8626079,0.137294732 C12.7710554,0.0457395982 12.6625187,0 12.5373522,0 L8.83733417,0 C8.71209173,0 8.60363097,0.0457395982 8.51215438,0.137294732 C8.42060185,0.228799241 8.37476231,0.337212466 8.37476231,0.462483784 C8.37476231,0.587755102 8.42060185,0.69619364 8.51215438,0.787748774 L9.78399286,2.05964879 L5.0722903,6.77158677 C5.02404614,6.81975637 5,6.87519063 5,6.93771239 C5,7.00046195 5.02412208,7.05587091 5.0722903,7.1040405 L5.89613648,7.92780889 C5.9443047,7.97597848 5.99973739,8 6.06235861,8 C6.12497983,8 6.18043783,7.9760038 6.22858074,7.92780889 L10.9403086,3.21594684 L12.2122483,4.48784686 C12.3037249,4.57940199 12.4121604,4.62519222 12.5374281,4.62519222 C12.6626959,4.62519222 12.7711313,4.57940199 12.8627092,4.48784686 C12.9542617,4.39631704 13,4.28792913 13,4.16265781 L13,0.462483784 C12.9999747,0.337136529 12.9540845,0.228799241 12.8626079,0.137294732 Z" id="Shape"></path>
            </g>
        </g>
    </g>
</svg>