<?xml version="1.0" standalone="no"?>
<!DOCTYPE svg PUBLIC "-//W3C//DTD SVG 20010904//EN"
 "http://www.w3.org/TR/2001/REC-SVG-20010904/DTD/svg10.dtd">
<svg version="1.0" xmlns="http://www.w3.org/2000/svg"
 width="700.000000pt" height="700.000000pt" viewBox="0 0 700.000000 700.000000"
 preserveAspectRatio="xMidYMid meet">
<metadata>
Created by potrace 1.11, written by Peter Selinger 2001-2013
</metadata>
<g transform="translate(0.000000,700.000000) scale(0.100000,-0.100000)"
fill="#000000" stroke="none">
<path d="M991 6224 c-322 -46 -573 -292 -627 -616 -4 -23 -8 -892 -8 -1930 -1
-1037 -4 -1889 -8 -1893 -4 -4 -62 -8 -130 -9 -138 -1 -162 -10 -199 -69 -18
-29 -19 -46 -15 -202 4 -178 13 -229 59 -328 96 -210 292 -361 517 -400 60
-10 642 -12 2920 -11 1565 0 2871 4 2903 8 161 21 338 123 442 254 61 75 120
200 138 287 8 40 15 133 15 215 1 127 -1 150 -18 177 -36 59 -61 68 -197 69
-68 0 -126 4 -130 8 -5 4 -8 859 -9 1899 0 1995 1 1939 -45 2067 -52 145 -181
299 -316 379 -83 49 -201 90 -288 98 -33 4 -523 7 -1090 7 -983 0 -1031 -1
-1061 -18 -105 -62 -81 -228 36 -251 14 -3 486 -5 1050 -5 1136 0 1095 2 1209
-65 102 -61 174 -152 210 -268 19 -61 20 -89 18 -364 l-2 -298 -90 -57 c-49
-31 -137 -87 -195 -123 -58 -36 -179 -113 -270 -171 -91 -57 -226 -143 -300
-190 -74 -47 -193 -123 -265 -168 -532 -337 -1778 -1126 -1900 -1203 -82 -53
-166 -105 -185 -118 -19 -13 -81 -52 -137 -88 l-102 -64 -573 573 c-617 616
-604 605 -683 583 -28 -8 -142 -116 -535 -509 l-500 -500 0 408 0 407 536 536
536 536 562 -561 c589 -589 591 -591 662 -576 18 4 92 45 164 91 73 46 148 93
166 104 37 23 180 113 298 189 44 28 126 80 183 116 56 36 234 148 394 250
160 102 303 192 318 200 14 9 58 36 96 61 39 25 158 101 265 169 107 67 219
138 248 157 29 19 55 33 56 31 1 -1 8 -18 16 -36 27 -69 128 -100 192 -58 32
21 64 85 72 141 3 22 12 76 21 120 27 140 29 196 7 234 -35 64 -66 72 -272 72
-157 0 -186 -2 -212 -18 -42 -24 -70 -64 -70 -99 -2 -60 3 -74 32 -108 l30
-34 -52 -34 c-61 -40 -322 -206 -1178 -748 -333 -211 -635 -402 -671 -425 -37
-24 -77 -48 -89 -55 -21 -11 -53 19 -599 563 -437 436 -583 577 -606 581 -34
7 -63 3 -97 -14 -13 -7 -245 -233 -516 -504 l-492 -491 0 711 c0 633 2 717 17
770 45 159 169 282 332 328 46 13 172 16 909 16 793 0 858 2 891 18 52 26 75
63 74 121 -1 55 -20 89 -68 117 -28 17 -81 18 -874 19 -561 0 -869 -4 -920
-11z m5377 -3730 l-3 -717 -462 -1 -461 -1 0 1141 0 1141 461 292 462 292 3
-716 c1 -393 1 -1037 0 -1431z m-1198 336 l0 -1050 -47 -1 c-27 0 -236 -1
-465 -2 l-418 -2 -1 25 c0 14 0 356 0 760 -1 670 1 736 16 745 117 72 865 547
880 559 11 8 23 15 28 16 4 0 7 -472 7 -1050z m-2427 -258 c17 -21 18 -50 19
-403 0 -209 -3 -383 -6 -386 -4 -5 -707 -7 -888 -4 l-38 1 0 852 0 853 448
-445 c246 -245 455 -455 465 -468z m-1185 48 l1 -840 -42 -1 c-54 -1 -870 -1
-879 0 -5 1 -8 173 -8 383 l0 382 458 458 c251 252 460 458 463 458 4 0 7
-378 7 -840z m2407 -176 l0 -667 -455 1 c-250 0 -460 1 -465 1 -10 1 -15 745
-5 754 3 3 124 80 270 172 536 340 595 378 615 391 11 7 25 13 30 13 7 1 10
-224 10 -665z m2752 -943 c16 -1 7 -107 -14 -171 -46 -136 -157 -239 -298
-276 -41 -11 -556 -14 -2911 -14 -2775 0 -2863 1 -2916 19 -77 26 -113 47
-159 88 -84 76 -133 175 -143 289 -3 34 -3 63 -1 65 3 3 6407 3 6442 0z"/>
<path d="M3297 6225 c-48 -17 -67 -33 -84 -72 -18 -45 -16 -79 8 -123 49 -87
181 -88 232 -2 60 105 -43 236 -156 197z"/>
</g>
</svg>
