<?xml version="1.0" standalone="no"?>
<!DOCTYPE svg PUBLIC "-//W3C//DTD SVG 20010904//EN"
 "http://www.w3.org/TR/2001/REC-SVG-20010904/DTD/svg10.dtd">
<svg version="1.0" xmlns="http://www.w3.org/2000/svg"
 width="1080.000000pt" height="1080.000000pt" viewBox="0 0 1080.000000 1080.000000"
 preserveAspectRatio="xMidYMid meet">
<metadata>
Created by potrace 1.11, written by Peter Selinger 2001-2013
</metadata>
<g transform="translate(0.000000,1080.000000) scale(0.100000,-0.100000)"
fill="#000000" stroke="none">
<path d="M0 5400 l0 -5400 3045 0 3045 0 0 2160 0 2160 2355 0 2355 0 0 1090
0 1090 -2355 0 -2355 0 0 2150 0 2150 -3045 0 -3045 0 0 -5400z m5003 4087
l37 -114 -2 -312 -3 -311 -38 25 -37 26 -176 -121 c-97 -67 -178 -120 -179
-118 -2 2 25 88 61 192 35 103 64 191 64 195 0 5 -79 61 -176 127 l-175 119
220 3 220 2 19 53 c11 28 41 118 68 200 27 81 51 147 54 147 3 0 22 -51 43
-113z m-1807 -617 l69 -200 224 0 225 0 -180 -121 c-98 -66 -180 -122 -182
-124 -1 -1 27 -87 63 -191 36 -103 64 -192 63 -196 -2 -5 -71 38 -153 95 -83
57 -162 111 -176 120 -25 17 -26 16 -200 -103 -96 -65 -175 -115 -177 -111 -1
4 27 93 62 196 36 104 65 189 63 190 -1 1 -82 57 -181 123 l-179 122 224 2
224 3 42 125 c56 163 94 270 98 270 1 0 33 -90 71 -200z m-1370 -1367 l36
-103 222 -2 221 -3 -177 -119 c-98 -66 -178 -123 -178 -127 0 -4 29 -92 65
-195 35 -104 62 -190 60 -192 -2 -2 -82 50 -179 117 l-175 121 -174 -120 c-96
-66 -178 -120 -181 -120 -3 0 24 84 59 188 36 103 65 192 65 197 0 6 -79 65
-176 130 l-177 120 223 5 223 5 61 180 c34 99 65 189 70 200 7 16 15 -1 42
-80 19 -55 50 -146 70 -202z m-465 -1810 l65 -198 221 -5 221 -5 -174 -118
c-96 -65 -174 -123 -174 -128 0 -5 29 -95 65 -200 36 -105 61 -189 57 -187 -4
2 -85 56 -180 121 -107 74 -177 115 -185 111 -6 -5 -86 -59 -176 -121 -90 -62
-166 -111 -168 -109 -2 2 26 88 62 191 36 103 65 191 65 196 0 5 -79 62 -176
126 l-177 118 220 3 221 2 68 200 c38 110 71 200 74 200 3 0 35 -89 71 -197z
m432 -1803 l69 -200 220 -2 219 -3 -175 -119 c-97 -65 -176 -122 -176 -127 0
-4 29 -92 65 -195 36 -103 63 -189 62 -191 -2 -1 -83 51 -180 118 l-177 120
-175 -120 c-97 -67 -177 -121 -180 -121 -2 0 25 85 60 190 36 104 65 194 65
200 0 5 -79 63 -176 127 l-177 118 223 5 224 5 65 198 c36 108 68 197 71 197
3 0 36 -90 73 -200z m1403 -1270 l69 -200 224 0 224 0 -179 -121 c-98 -67
-180 -123 -182 -124 -1 -1 27 -89 64 -194 36 -106 64 -194 62 -197 -3 -2 -79
47 -169 109 -90 62 -169 116 -175 120 -6 3 -89 -48 -185 -114 -96 -66 -175
-116 -177 -111 -1 5 27 94 63 197 47 136 62 191 53 196 -6 4 -87 58 -179 121
l-167 113 222 3 222 2 28 88 c37 114 107 312 111 312 1 0 33 -90 71 -200z
m1807 -443 l37 -114 -2 -312 -3 -311 -37 25 -38 26 -176 -122 c-97 -66 -177
-119 -179 -117 -2 2 26 88 61 192 35 104 64 192 64 196 0 3 -79 60 -176 126
l-176 119 223 5 223 5 65 198 c36 108 68 197 71 197 3 0 22 -51 43 -113z"/>
<path d="M6830 9171 l0 -1630 498 245 c273 135 1166 575 1984 977 l1487 732 1
653 0 652 -1985 0 -1985 0 0 -1629z"/>
<path d="M8916 8161 l-1880 -926 817 -3 818 -2 1057 521 c581 286 1060 524
1065 528 4 4 6 187 5 408 l-3 400 -1879 -926z"/>
<path d="M8701 3585 c5 -5 1552 -768 1887 -931 l212 -103 0 405 0 406 -235
114 -234 114 -817 0 c-450 0 -815 -2 -813 -5z"/>
<path d="M6830 1640 l0 -1640 1985 0 1985 0 -2 666 -3 665 -1978 975 c-1088
535 -1980 974 -1983 974 -2 0 -4 -738 -4 -1640z"/>
</g>
</svg>
