<?xml version="1.0" standalone="no"?>
<!DOCTYPE svg PUBLIC "-//W3C//DTD SVG 20010904//EN"
 "http://www.w3.org/TR/2001/REC-SVG-20010904/DTD/svg10.dtd">
<svg version="1.0" xmlns="http://www.w3.org/2000/svg"
 width="700.000000pt" height="700.000000pt" viewBox="0 0 700.000000 700.000000"
 preserveAspectRatio="xMidYMid meet">
<metadata>
Created by potrace 1.11, written by Peter Selinger 2001-2013
</metadata>
<g transform="translate(0.000000,700.000000) scale(0.100000,-0.100000)"
fill="#000000" stroke="none">
<path d="M996 6260 c-76 -19 -147 -65 -195 -125 l-34 -43 -46 24 c-160 84
-363 17 -446 -147 -34 -66 -37 -96 -38 -359 l-1 -240 -77 0 c-43 0 -89 -4
-103 -10 -64 -24 -73 -114 -15 -149 24 -15 49 -18 110 -17 l79 1 1 -240 c0
-132 2 -247 4 -255 29 -145 109 -236 242 -279 58 -18 162 -8 227 22 32 15 59
27 61 27 1 0 16 -21 35 -46 36 -51 111 -103 180 -126 141 -47 327 21 408 150
59 92 63 121 65 443 l2 294 298 2 297 1 0 -1199 0 -1199 -161 0 c-161 0 -190
-5 -216 -39 -21 -27 -15 -77 11 -108 l24 -28 399 -2 c219 0 401 -2 405 -2 7
-1 6 -3 -83 -371 l-62 -255 -1 -602 -1 -603 25 -24 c39 -38 89 -38 125 -1 l25
24 0 422 0 421 28 -8 c37 -11 1785 -13 1834 -2 21 4 44 9 50 11 7 1 11 -126
12 -418 2 -464 1 -457 65 -475 42 -11 87 9 102 47 6 15 9 250 9 602 l0 576
-26 105 c-14 58 -27 112 -29 120 -2 8 -22 90 -44 181 -23 92 -41 169 -41 172
0 4 189 8 421 9 l421 3 24 28 c33 39 31 81 -5 117 l-28 29 -144 0 c-79 0 -165
0 -191 1 l-48 0 0 1234 0 1234 300 0 300 0 0 -146 c0 -331 6 -466 24 -512 54
-145 184 -240 336 -244 129 -5 224 43 317 161 l18 23 55 -28 c47 -23 67 -27
140 -27 72 0 93 4 141 27 75 37 126 90 162 168 l30 65 0 258 0 257 31 1 c31 1
105 5 138 8 23 1 51 46 54 85 5 62 -35 86 -140 86 l-76 0 -1 238 c-2 277 -1
265 -25 332 -34 96 -134 183 -234 205 -79 18 -208 -6 -258 -48 -11 -8 -16 -7
-24 7 -40 71 -135 139 -223 159 -204 46 -397 -72 -445 -273 -9 -38 -13 -141
-13 -337 l0 -283 -2049 0 -2048 0 -1 278 c-2 293 -2 303 -13 348 -50 197 -249
315 -450 264z m181 -191 c30 -15 52 -35 71 -67 l27 -47 0 -670 c0 -637 -1
-673 -19 -713 -69 -152 -301 -135 -346 26 -6 24 -10 268 -10 690 1 702 0 691
52 746 56 59 147 73 225 35z m4826 7 c39 -16 94 -76 104 -114 4 -15 7 -326 8
-692 l0 -665 -27 -45 c-77 -132 -266 -123 -329 15 -17 38 -19 80 -18 700 0
696 1 707 46 757 48 53 147 73 216 44z m-5378 -116 c36 -14 62 -40 78 -80 12
-29 15 -135 15 -603 -1 -559 -1 -569 -22 -610 -50 -99 -181 -106 -250 -14 -21
28 -21 34 -21 625 l0 597 24 34 c38 53 112 75 176 51z m5888 -5 c18 -8 43 -32
57 -52 l25 -37 0 -586 0 -587 -29 -37 c-70 -92 -203 -81 -251 20 -15 33 -17
87 -17 610 0 545 1 576 19 606 41 70 125 97 196 63z m-1742 -798 c1 -41 1
-2398 0 -2414 -1 -10 -39 -13 -155 -13 -85 0 -157 4 -160 8 -3 5 -8 24 -11 43
-3 19 -17 77 -30 130 -14 53 -26 105 -28 115 -2 11 -7 30 -10 44 -12 48 -59
243 -62 259 -16 84 -68 255 -89 292 -60 106 -196 199 -321 217 -95 14 -792 9
-840 -7 -130 -41 -241 -133 -293 -243 -16 -34 -42 -115 -57 -178 -28 -123 -64
-274 -115 -487 l-32 -133 -169 0 -169 0 0 1199 0 1199 1270 0 1270 1 1 -32z
m-874 -1501 c50 -9 135 -68 166 -114 22 -34 49 -108 61 -172 7 -37 51 -221
101 -422 24 -97 46 -187 49 -200 2 -12 16 -72 31 -132 15 -60 28 -114 29 -120
1 -6 5 -20 9 -31 3 -11 8 -31 11 -45 2 -14 28 -119 57 -235 69 -279 68 -347
-3 -387 -18 -9 -216 -12 -878 -13 -470 -1 -870 2 -889 6 -53 12 -85 50 -85
101 0 24 24 142 53 263 78 324 130 542 135 567 2 13 18 79 35 148 17 69 33
136 36 150 3 14 19 81 36 150 17 69 32 132 34 140 46 211 68 253 163 315 34
23 57 29 125 34 108 8 675 5 724 -3z"/>
</g>
</svg>
