<?xml version="1.0" standalone="no"?>
<!DOCTYPE svg PUBLIC "-//W3C//DTD SVG 20010904//EN"
 "http://www.w3.org/TR/2001/REC-SVG-20010904/DTD/svg10.dtd">
<svg version="1.0" xmlns="http://www.w3.org/2000/svg"
 width="349.000000pt" height="349.000000pt" viewBox="0 0 349.000000 349.000000"
 preserveAspectRatio="xMidYMid meet">
<metadata>
Created by potrace 1.11, written by Peter Selinger 2001-2013
</metadata>
<g transform="translate(0.000000,349.000000) scale(0.100000,-0.100000)"
fill="#000000" stroke="none">
<path d="M583 2465 c-94 -26 -192 -106 -233 -190 -28 -58 -110 -389 -110 -445
0 -62 35 -127 89 -165 l43 -30 481 -3 c265 -1 485 -6 489 -10 9 -9 -59 -290
-75 -309 -7 -10 -110 -13 -453 -13 -243 0 -445 4 -448 9 -3 4 1 32 8 60 10 40
11 54 2 57 -7 3 -66 3 -131 2 l-120 -3 -17 -70 c-20 -85 -21 -118 -7 -170 15
-54 82 -120 137 -134 30 -8 189 -11 540 -9 l497 3 55 29 c70 36 145 107 175
167 29 57 115 392 115 449 0 22 -6 56 -14 74 -19 46 -79 101 -125 114 -27 8
-179 12 -505 12 -342 0 -466 3 -466 11 0 29 75 305 84 311 13 9 890 11 898 2
3 -3 0 -28 -8 -56 -7 -28 -11 -55 -8 -60 3 -4 61 -8 129 -8 l124 0 10 38 c29
109 33 135 27 177 -8 53 -55 120 -106 150 -34 19 -51 20 -530 22 -403 2 -505
-1 -547 -12z"/>
<path d="M2045 2458 c-20 -84 -346 -1384 -351 -1400 -5 -18 10 -19 613 -16
l618 3 57 27 c64 30 139 95 175 152 31 47 123 400 123 468 0 26 -7 65 -16 87
-14 36 -14 42 0 70 21 39 106 384 106 428 0 68 -49 145 -115 181 -27 15 -92
17 -617 20 l-587 3 -6 -23z m1049 -246 c7 -12 -66 -296 -78 -304 -15 -10 -818
-10 -833 0 -9 6 -3 43 23 147 19 77 36 146 39 153 3 9 97 12 424 12 231 0 422
-4 425 -8z m-84 -582 c0 -23 -74 -306 -83 -317 -7 -10 -110 -13 -453 -13 -243
0 -445 4 -448 8 -3 5 13 79 34 165 22 86 40 159 40 162 0 3 205 5 455 5 304 0
455 -3 455 -10z"/>
</g>
</svg>
