<svg xmlns="http://www.w3.org/2000/svg" width="28.22" height="20.952" viewBox="0 0 28.22 20.952">
  <path id="Path_3" data-name="Path 3" d="M27.933,28.489a.693.693,0,0,0-.864,0l-7.427,5.869-4.877-11.4a.735.735,0,0,0-1.312,0L8.522,34.495l-7.362-6a.7.7,0,0,0-.87-.014.757.757,0,0,0-.242.865L5.163,43.033a.717.717,0,0,0,.668.474H22.387a.713.713,0,0,0,.667-.474L28.17,29.35A.757.757,0,0,0,27.933,28.489Zm-13.823-3.4,4.36,10.2-4.553,3.6L9.685,35.442ZM7.923,35.9,5.848,40.748l-3.518-9.41ZM6.871,42.022l2.216-5.18,3.654,2.975L9.949,42.022H6.871Zm5.441,0L13.9,40.765l1.546,1.257Zm5.407-.041L15.08,39.833l3.986-3.15,2.283,5.34H17.765C17.751,42.009,17.735,42,17.719,41.982Zm4.655-1.232L20.24,35.757l5.678-4.488Z" transform="translate(0 -22.554)" fill="#fff"/>
</svg>

