<?xml version="1.0" standalone="no"?>
<!DOCTYPE svg PUBLIC "-//W3C//DTD SVG 20010904//EN"
 "http://www.w3.org/TR/2001/REC-SVG-20010904/DTD/svg10.dtd">
<svg version="1.0" xmlns="http://www.w3.org/2000/svg"
 width="700.000000pt" height="700.000000pt" viewBox="0 0 700.000000 700.000000"
 preserveAspectRatio="xMidYMid meet">
<metadata>
Created by potrace 1.11, written by Peter Selinger 2001-2013
</metadata>
<g transform="translate(0.000000,700.000000) scale(0.100000,-0.100000)"
fill="#000000" stroke="none">
<path d="M2275 6984 c-470 -84 -842 -413 -980 -867 -50 -165 -51 -187 -49
-1546 0 -696 4 -1288 8 -1316 52 -367 184 -681 399 -944 178 -218 442 -418
682 -517 33 -14 74 -32 92 -40 17 -8 36 -14 42 -14 6 0 11 -4 11 -10 0 -5 -5
-10 -11 -10 -40 0 -268 -130 -382 -217 -70 -54 -224 -205 -278 -273 -144 -180
-287 -479 -323 -676 -3 -16 -8 -42 -12 -59 -12 -55 -8 -139 10 -173 25 -49 74
-91 123 -105 64 -19 411 -13 513 8 14 3 46 10 72 15 136 27 336 100 437 159
28 17 54 31 57 31 3 0 38 22 79 50 189 127 342 281 469 472 32 49 59 88 59 88
1 0 2 -199 2 -442 l0 -443 25 -45 c94 -167 343 -132 379 54 6 30 9 218 8 464
-1 226 0 412 3 412 3 0 17 -22 31 -48 67 -120 230 -307 357 -411 72 -59 184
-135 256 -175 57 -31 237 -109 281 -121 17 -5 35 -9 40 -11 179 -53 296 -68
536 -68 191 1 209 5 271 66 28 28 59 114 54 145 -2 10 -7 40 -10 66 -11 72
-13 82 -42 181 -86 300 -271 586 -513 790 -118 99 -195 150 -337 221 l-121 61
61 24 c657 252 1104 823 1174 1500 5 47 8 661 7 1365 -2 1407 0 1341 -64 1534
-141 420 -484 722 -926 817 -157 33 -406 25 -560 -18 -22 -6 -44 -13 -50 -14
-5 -1 -24 -8 -42 -15 -28 -11 -44 -10 -120 9 -176 44 -270 56 -468 56 -235 1
-320 -8 -507 -56 l-87 -21 -88 26 c-48 14 -115 31 -148 38 -93 17 -328 19
-420 3z"/>
</g>
</svg>
